<?xml version="1.0" encoding="UTF-8"?>
<!DOCTYPE svg PUBLIC "-//W3C//DTD SVG 1.1//EN" "http://www.w3.org/Graphics/SVG/1.1/DTD/svg11.dtd">
<!-- Creator: CorelDRAW X7 -->
<svg xmlns="http://www.w3.org/2000/svg" xml:space="preserve" width="100px" height="100px" version="1.1" style="shape-rendering:geometricPrecision; text-rendering:geometricPrecision; image-rendering:optimizeQuality; fill-rule:evenodd; clip-rule:evenodd"
viewBox="0 0 100 100"
 xmlns:xlink="http://www.w3.org/1999/xlink">
 <defs>
  <style type="text/css">
   <![CDATA[
    .str0 {stroke:#386ABB;stroke-width:8.33274}
    .fil1 {fill:#386ABB}
    .fil0 {fill:#FDCB05}
   ]]>
  </style>
 </defs>
 <g id="Layer_x0020_1">
  <metadata id="CorelCorpID_0Corel-Layer"/>
  <path class="fil0 str0" d="M5 16c1,2 10,20 12,22 5,0 3,-1 6,-3 4,3 26,55 29,60 5,-1 15,-8 19,-10 0,-7 -10,-22 -10,-30 5,-3 20,-14 24,-19 8,-8 16,-17 2,-25 -21,-14 -78,3 -82,5z"/>
  <path class="fil1" d="M45 28c3,-2 9,-3 14,-2l-10 10c-3,-1 -3,-5 -4,-8z"/>
 </g>
</svg>
